<svg width="300" height="534" viewBox="0 0 300 534" fill="none" xmlns="http://www.w3.org/2000/svg">
<g clip-path="url(#clip0_84_109)">
<g filter="url(#filter0_d_84_109)">
<path d="M105.049 568.881L150.613 523.333C150.613 523.333 165.795 492.951 135.414 462.586C105.049 432.205 74.6669 447.387 74.6669 447.387L29.1026 492.951C13.9201 508.151 -1.88946e-05 489.895 -1.82956e-05 476.191C-0.00219919 460.193 3.14688 444.352 9.26739 429.571C15.3879 414.791 24.36 401.361 35.6712 390.048C46.9825 378.735 60.4114 369.761 75.191 363.639C89.9707 357.516 105.812 354.365 121.809 354.365C131.261 354.365 140.43 355.561 149.267 357.588L210.8 296.138L300.469 386.884L240.396 448.699C242.502 457.707 243.583 466.924 243.619 476.174C243.619 492.171 240.468 508.01 234.346 522.789C228.225 537.567 219.252 550.995 207.941 562.306C196.63 573.618 183.202 582.59 168.424 588.711C153.645 594.833 137.805 597.984 121.809 597.984C108.022 598 89.8661 584.063 105.049 568.881ZM271.699 238.312L457.669 50.3484C469.605 38.4225 485.788 31.7234 502.66 31.7234C519.533 31.7234 535.716 38.4225 547.652 50.3484C559.578 62.2842 566.277 78.4668 566.277 95.3396C566.277 112.212 559.578 128.395 547.652 140.331L361.9 329.395L271.699 238.312ZM528.864 95.7299C528.864 92.4971 528.228 89.2959 526.991 86.3092C525.753 83.3224 523.94 80.6086 521.654 78.3226C519.368 76.0366 516.654 74.2233 513.668 72.9862C510.681 71.749 507.48 71.1123 504.247 71.1123C501.014 71.1123 497.813 71.749 494.826 72.9862C491.839 74.2233 489.125 76.0366 486.84 78.3226C484.554 80.6086 482.74 83.3224 481.503 86.3091C480.266 89.2959 479.629 92.4971 479.629 95.7299C479.629 102.259 482.223 108.521 486.84 113.137C491.456 117.754 497.718 120.348 504.247 120.348C510.776 120.348 517.037 117.754 521.654 113.137C526.271 108.521 528.864 102.259 528.864 95.7299Z" fill="#99A5AE" fill-opacity="0.08" shape-rendering="crispEdges"/>
<path d="M74.6669 447.387C73.3259 444.704 73.3276 444.703 73.3294 444.702L73.3336 444.7L73.3441 444.695L73.3735 444.68C73.3969 444.669 73.4277 444.654 73.4658 444.636C73.542 444.599 73.6475 444.55 73.7814 444.49C74.049 444.369 74.4304 444.203 74.9181 444.008C75.8929 443.619 77.2953 443.11 79.0649 442.605C82.6007 441.595 87.6278 440.593 93.654 440.594C105.787 440.596 121.753 444.675 137.535 460.464C137.535 460.465 137.535 460.465 137.535 460.465C137.535 460.465 137.535 460.465 137.536 460.466L74.6669 447.387ZM74.6669 447.387L73.3259 444.704L72.8901 444.921L72.5456 445.266L26.9813 490.83L26.9802 490.831C23.5578 494.257 20.4939 495.522 17.9659 495.678C15.4373 495.833 12.9933 494.908 10.7516 493.083C6.1347 489.325 2.99998 482.222 2.99998 476.19C2.99785 460.587 6.06938 445.136 12.0392 430.719C18.0089 416.303 26.76 403.203 37.7927 392.169C48.8254 381.135 61.9235 372.382 76.3392 366.41C90.7548 360.439 106.206 357.365 121.809 357.365C131.007 357.365 139.95 358.529 148.597 360.512L150.214 360.882L151.387 359.71L210.786 300.392L296.269 386.901L238.245 446.609L237.101 447.785L237.475 449.382C239.529 458.169 240.584 467.159 240.619 476.182C240.618 491.781 237.544 507.228 231.575 521.641C225.604 536.055 216.853 549.153 205.82 560.185C194.788 571.218 181.69 579.969 167.276 585.94C152.861 591.91 137.412 594.984 121.809 594.984L121.806 594.984C115.733 594.991 108.638 591.855 104.895 587.242C103.078 585.002 102.158 582.557 102.318 580.025C102.478 577.492 103.747 574.425 107.17 571.002L152.734 525.455L153.079 525.11L153.297 524.674L150.613 523.333M74.6669 447.387L150.613 523.333M150.613 523.333L105.049 568.881C89.8661 584.063 108.022 598 121.809 597.984C137.805 597.984 153.645 594.833 168.424 588.711C183.202 582.59 196.63 573.618 207.941 562.306C219.252 550.995 228.225 537.567 234.346 522.789C240.468 508.01 243.619 492.171 243.619 476.174L150.613 523.333ZM361.892 325.123L545.512 138.228L545.521 138.219L545.529 138.21C556.893 126.837 563.277 111.417 563.277 95.3396C563.277 79.2628 556.894 63.8437 545.531 52.4706C534.158 41.1067 518.738 34.7234 502.66 34.7234C486.586 34.7234 471.169 41.1042 459.797 52.4637C459.794 52.466 459.792 52.4683 459.79 52.4706L275.92 238.311L361.892 325.123ZM529.762 85.1611L526.991 86.3092L529.762 85.1611C531.15 88.5118 531.864 92.1031 531.864 95.7299C531.864 103.055 528.955 110.079 523.776 115.259C518.596 120.438 511.572 123.348 504.247 123.348C496.922 123.348 489.898 120.438 484.718 115.259C479.539 110.079 476.629 103.055 476.629 95.7299C476.629 92.1031 477.344 88.5118 478.732 85.1611C480.119 81.8104 482.154 78.7658 484.718 76.2013C487.283 73.6368 490.327 71.6024 493.678 70.2145C497.029 68.8266 500.62 68.1123 504.247 68.1123C507.874 68.1123 511.465 68.8266 514.816 70.2145C518.166 71.6024 521.211 73.6368 523.776 76.2013C526.34 78.7658 528.374 81.8104 529.762 85.1611Z" stroke="#8897A3" stroke-opacity="0.8" stroke-width="6" shape-rendering="crispEdges"/>
</g>
<g filter="url(#filter1_d_84_109)">
<path d="M146.5 235.5L531.643 623.851C551.011 643.219 581.825 644.133 600.097 625.861C618.369 607.605 617.456 576.775 598.087 557.406L209.5 173" stroke="#8897A3" stroke-opacity="0.8" stroke-width="6" shape-rendering="crispEdges"/>
</g>
<g filter="url(#filter2_d_84_109)">
<path d="M14.8339 356.208C14.8339 356.208 -34.9995 256.542 48.0561 173.486L164.334 57.2085C164.334 57.2085 147.723 40.5974 164.334 23.9863L180.945 7.37516C180.945 7.37516 197.556 -9.23596 214.167 7.37516L280.612 73.8196C280.612 73.8196 297.223 90.4307 280.612 107.042L264.001 123.653C264.001 123.653 247.389 140.264 230.778 123.653L229.483 122.357C217.141 135.148 204.566 154.3 214.167 173.486L147.723 239.931C147.723 239.931 97.8894 223.32 64.6672 256.542C31.445 289.764 31.445 306.375 31.445 339.597C31.445 372.82 14.8339 356.208 14.8339 356.208Z" fill="#99A5AE" fill-opacity="0.08" shape-rendering="crispEdges"/>
<path d="M166.455 55.0872L166.457 55.0891L166.459 55.0906L166.46 55.092L166.461 55.0925L168.577 57.2085L166.455 59.3298L50.1774 175.608C9.37847 216.407 1.25672 261.184 3.29398 295.817C4.31434 313.163 7.88718 327.968 11.2049 338.431C12.8627 343.66 14.454 347.796 15.625 350.612C16.2103 352.02 16.6903 353.098 17.0205 353.816C17.1267 354.047 17.2173 354.241 17.291 354.397C17.3531 354.452 17.4229 354.514 17.5 354.58C17.8864 354.911 18.4383 355.352 19.0935 355.789C20.5013 356.727 21.9648 357.361 23.1394 357.361C23.6527 357.361 24.0977 357.242 24.525 356.957C24.9711 356.659 25.5655 356.068 26.1662 354.867C27.4101 352.379 28.445 347.75 28.445 339.597L28.445 339.284C28.4448 322.928 28.4447 310.042 32.7517 297.121C37.1119 284.04 45.773 271.193 62.5459 254.42C79.918 237.048 101.58 232.778 118.653 232.778C127.202 232.778 134.671 233.846 140.006 234.913C142.676 235.447 144.82 235.982 146.306 236.388C146.505 236.442 146.692 236.494 146.868 236.543L210.564 172.847C206.334 162.981 207.321 153.204 210.808 144.417C214.498 135.118 221.022 126.805 227.324 120.274L229.444 118.076L231.604 120.236L232.9 121.532C236.681 125.313 240.316 127.069 243.565 127.719C246.837 128.373 249.933 127.948 252.67 127.036C255.419 126.12 257.747 124.73 259.402 123.548C260.223 122.961 260.863 122.437 261.29 122.067C261.502 121.883 261.661 121.738 261.76 121.645C261.81 121.598 261.846 121.564 261.866 121.545L261.879 121.532L261.881 121.53L261.883 121.528L261.884 121.527L261.885 121.526L278.49 104.921C282.272 101.139 284.028 97.5045 284.678 94.2547C285.332 90.9828 284.907 87.8873 283.995 85.1502C283.078 82.4007 281.688 80.0731 280.506 78.4183C279.92 77.5968 279.395 76.9568 279.026 76.5306C278.842 76.3179 278.697 76.1595 278.603 76.0597C278.557 76.0098 278.523 75.9746 278.504 75.9546L278.49 75.9409L278.488 75.939L278.487 75.9375L278.486 75.9361L278.485 75.9356L212.046 9.49648C208.264 5.7149 204.63 3.95904 201.38 3.30909C198.108 2.6547 195.013 3.07967 192.276 3.99204C189.526 4.90856 187.199 6.29845 185.544 7.48042C184.722 8.06721 184.082 8.59151 183.656 8.96091C183.443 9.14527 183.285 9.29005 183.185 9.38347C183.135 9.43016 183.1 9.46391 183.08 9.48327L183.066 9.49648L183.064 9.49836L183.063 9.49987L183.062 9.50127L183.061 9.50179L166.455 26.1076C162.674 29.8892 160.918 33.5236 160.268 36.7734C159.613 40.0453 160.038 43.1408 160.951 45.8779C161.867 48.6274 163.257 50.955 164.439 52.6097C165.026 53.4313 165.55 54.0713 165.92 54.4975C166.104 54.7102 166.249 54.8685 166.342 54.9684C166.389 55.0183 166.423 55.0535 166.442 55.0735L166.455 55.0872Z" stroke="#8897A3" stroke-opacity="0.8" stroke-width="6" shape-rendering="crispEdges"/>
</g>
</g>
<defs>
<filter id="filter0_d_84_109" x="-8" y="27.7234" width="582.277" height="582.26" filterUnits="userSpaceOnUse" color-interpolation-filters="sRGB">
<feFlood flood-opacity="0" result="BackgroundImageFix"/>
<feColorMatrix in="SourceAlpha" type="matrix" values="0 0 0 0 0 0 0 0 0 0 0 0 0 0 0 0 0 0 127 0" result="hardAlpha"/>
<feOffset dy="4"/>
<feGaussianBlur stdDeviation="4"/>
<feComposite in2="hardAlpha" operator="out"/>
<feColorMatrix type="matrix" values="0 0 0 0 0 0 0 0 0 0 0 0 0 0 0 0 0 0 0.25 0"/>
<feBlend mode="normal" in2="BackgroundImageFix" result="effect1_dropShadow_84_109"/>
<feBlend mode="normal" in="SourceGraphic" in2="effect1_dropShadow_84_109" result="shape"/>
</filter>
<filter id="filter1_d_84_109" x="136.37" y="166.867" width="487.86" height="487.126" filterUnits="userSpaceOnUse" color-interpolation-filters="sRGB">
<feFlood flood-opacity="0" result="BackgroundImageFix"/>
<feColorMatrix in="SourceAlpha" type="matrix" values="0 0 0 0 0 0 0 0 0 0 0 0 0 0 0 0 0 0 127 0" result="hardAlpha"/>
<feOffset dy="4"/>
<feGaussianBlur stdDeviation="4"/>
<feComposite in2="hardAlpha" operator="out"/>
<feColorMatrix type="matrix" values="0 0 0 0 0 0 0 0 0 0 0 0 0 0 0 0 0 0 0.25 0"/>
<feBlend mode="normal" in2="BackgroundImageFix" result="effect1_dropShadow_84_109"/>
<feBlend mode="normal" in="SourceGraphic" in2="effect1_dropShadow_84_109" result="shape"/>
</filter>
<filter id="filter2_d_84_109" x="-7.99255" y="-4.00757" width="303.987" height="376.369" filterUnits="userSpaceOnUse" color-interpolation-filters="sRGB">
<feFlood flood-opacity="0" result="BackgroundImageFix"/>
<feColorMatrix in="SourceAlpha" type="matrix" values="0 0 0 0 0 0 0 0 0 0 0 0 0 0 0 0 0 0 127 0" result="hardAlpha"/>
<feOffset dy="4"/>
<feGaussianBlur stdDeviation="4"/>
<feComposite in2="hardAlpha" operator="out"/>
<feColorMatrix type="matrix" values="0 0 0 0 0 0 0 0 0 0 0 0 0 0 0 0 0 0 0.25 0"/>
<feBlend mode="normal" in2="BackgroundImageFix" result="effect1_dropShadow_84_109"/>
<feBlend mode="normal" in="SourceGraphic" in2="effect1_dropShadow_84_109" result="shape"/>
</filter>
<clipPath id="clip0_84_109">
<rect width="598" height="598" fill="white" transform="matrix(-4.37114e-08 1 1 4.37114e-08 0 0)"/>
</clipPath>
</defs>
</svg>
